<?xml version="1.0" encoding="UTF-8" standalone="no"?>
<svg width="212px" height="81px" viewBox="0 0 212 81" version="1.1" xmlns="http://www.w3.org/2000/svg" xmlns:xlink="http://www.w3.org/1999/xlink" xmlns:sketch="http://www.bohemiancoding.com/sketch/ns">
    <!-- Generator: Sketch 3.2.2 (9983) - http://www.bohemiancoding.com/sketch -->
    <title>Fill 13</title>
    <desc>Created with Sketch.</desc>
    <defs></defs>
    <g id="Page-8" stroke="none" stroke-width="1" fill="none" fill-rule="evenodd" sketch:type="MSPage">
        <path d="M185.21074,25.7410251 C182.579666,25.657074 179.941269,25.6599839 177.310633,25.7545562 C175.910234,25.8048978 174.559771,26.3395951 173.890104,27.6518224 C173.318552,28.7717042 172.881577,30.010165 172.657671,31.2449885 C171.955055,35.1202712 171.375009,39.0178147 170.759378,42.9086654 C170.370436,45.3669637 169.940197,47.8213336 169.647465,50.2914171 C169.455336,51.9128231 169.742943,53.4891254 171.325806,54.4012391 C171.974239,54.774727 172.776726,54.8839944 173.509069,55.1134414 L180.538155,55.1134414 C180.647838,55.0716841 180.755325,55.0005366 180.867644,54.9923888 C183.219898,54.8205582 184.704793,53.5804968 185.282935,51.335932 C185.625457,50.0059542 185.865178,48.6462952 186.086594,47.2896917 C186.724776,43.3787626 187.349047,39.4652145 187.940955,35.5471561 C188.247452,33.5190891 188.601982,31.4853477 188.701121,29.4430221 C188.802457,27.3569023 187.297647,25.8075167 185.21074,25.7410251 L185.21074,25.7410251 Z M182.664822,31.7377392 C181.743789,37.5502406 180.816202,43.3618665 179.904784,49.1761189 C179.797284,49.8626808 179.490079,50.2123094 178.763508,50.1848761 C177.963959,50.1548162 177.162225,50.1912966 176.361948,50.1739319 C175.623432,50.1578805 175.496122,49.9594269 175.613527,49.2197496 C176.521013,43.5029728 177.42777,37.7859042 178.318942,32.0666468 C178.540205,30.6458067 178.551275,30.6087425 179.99728,30.6083048 C180.21563,30.6081588 180.433835,30.6083048 180.65233,30.6083048 C180.991873,30.6083048 181.331561,30.6068455 181.671249,30.6087425 C182.724544,30.6144335 182.825198,30.7256259 182.664822,31.7377392 Z M155.809244,25.7281484 C153.600956,25.6654457 151.388003,25.6642818 149.179862,25.7282938 C146.796614,25.7973977 145.292104,26.9261912 144.642419,29.1922162 C144.238261,30.6022261 144.000753,32.0672282 143.784094,33.5217555 C143.517571,35.311182 143.237198,37.1112287 143.17188,38.9143305 C143.102916,40.8173783 144.337551,42.2161861 146.245053,42.4336815 C147.853373,42.6172796 149.489978,42.5601052 151.114337,42.5941479 C152.070639,42.614079 152.162493,42.6687801 152.02894,43.5810967 C151.748713,45.4937463 151.427515,47.4005767 151.131104,49.3108986 C151.040853,49.8926804 150.697786,50.1350531 150.131207,50.131998 C149.232204,50.1271971 148.332909,50.1455278 147.434198,50.1261788 C146.708697,50.1104667 146.571207,49.8974813 146.700532,49.1529053 C146.878117,48.1294406 147.043454,47.1037937 147.208062,46.0782923 C147.297437,45.520515 147.142015,45.1683035 146.483727,45.2372618 C145.084776,45.3839075 143.681159,45.4943282 142.28906,45.688401 C142.019768,45.7259353 141.610507,46.0510872 141.577702,46.2869132 C141.328092,48.0783765 141.046261,49.8775503 140.994793,51.6806521 C140.953678,53.1242683 142.064528,54.3786127 143.422072,54.7916356 C143.898984,54.936681 144.398495,55.008258 144.8878,55.1134414 L151.740402,55.1134414 C151.802367,55.0786712 151.862874,55.016405 151.926443,55.0132044 C154.799141,54.8696138 156.229877,53.1686403 156.716411,50.4476936 C157.175536,47.8799393 157.64749,45.3105847 157.975686,42.7244997 C158.401131,39.3725983 156.718598,37.588991 153.479067,37.6473293 C152.288756,37.6687151 151.09757,37.6323446 149.907404,37.657804 C149.294169,37.6710428 148.986822,37.4951553 149.098943,36.8201196 C149.407747,34.9605708 149.670916,33.093166 150.019378,31.2414733 C150.065014,30.999537 150.488563,30.6902426 150.766166,30.6573637 C151.485252,30.5721114 152.220667,30.6131373 152.949376,30.6240484 C153.749672,30.6361234 153.878851,30.8061917 153.752297,31.5968854 C153.607226,32.5033827 153.470903,33.4111893 153.324811,34.3175411 C153.239664,34.8449128 153.495543,35.0347665 153.982952,34.9892307 C155.383799,34.8584426 156.789166,34.7580601 158.180244,34.55875 C158.483945,34.5153964 158.936217,34.1412171 158.97777,33.8675658 C159.206384,32.3661933 159.464888,30.8477995 159.454245,29.3369707 C159.439081,27.1732194 157.990704,25.7899781 155.809244,25.7281484 Z M137.348369,25.7281484 C135.140081,25.6654457 132.927128,25.6642818 130.718987,25.7282938 C128.335739,25.7973977 126.831229,26.9261912 126.181544,29.1922162 C125.777386,30.6022261 125.539878,32.0672282 125.323219,33.5217555 C125.056697,35.311182 124.776323,37.1112287 124.711005,38.9143305 C124.642041,40.8173783 125.876676,42.2161861 127.784178,42.4336815 C129.392498,42.6172796 131.029103,42.5601052 132.653607,42.5941479 C133.609764,42.614079 133.701618,42.6687801 133.568065,43.5810967 C133.287838,45.4937463 132.96664,47.4005767 132.670229,49.3108986 C132.579978,49.8926804 132.236911,50.1350531 131.670332,50.131998 C130.771329,50.1271971 129.872034,50.1455278 128.973323,50.1261788 C128.247822,50.1104667 128.110333,49.8974813 128.239657,49.1529053 C128.417242,48.1294406 128.582579,47.1037937 128.747041,46.0782923 C128.836563,45.520515 128.68114,45.1683035 128.022707,45.2372618 C126.623901,45.3839075 125.220284,45.4943282 123.828185,45.688401 C123.558893,45.7259353 123.149632,46.0510872 123.116827,46.2869132 C122.867217,48.0783765 122.585386,49.8775503 122.533919,51.6806521 C122.492803,53.1242683 123.603653,54.3786127 124.961198,54.7916356 C125.438255,54.936681 125.93762,55.008258 126.426925,55.1134414 L133.279527,55.1134414 C133.341492,55.0786712 133.401999,55.016405 133.465568,55.0132044 C136.33812,54.8696138 137.769002,53.1689312 138.255536,50.4475481 C138.714661,47.8799393 139.186616,45.3105847 139.514811,42.7243542 C139.940256,39.3721618 138.257432,37.588991 135.018047,37.6473293 C133.827881,37.6687151 132.636549,37.6323446 131.446529,37.657804 C130.833294,37.6710428 130.525948,37.4951553 130.638068,36.8199741 C130.946872,34.9605708 131.210041,33.0930206 131.558503,31.2413278 C131.604139,30.999537 132.027688,30.6902426 132.305291,30.6573637 C133.024377,30.5721114 133.759938,30.6131373 134.488501,30.6240484 C135.288797,30.6361234 135.417976,30.8061917 135.291422,31.5970309 C135.146351,32.5033827 135.010028,33.4111893 134.863936,34.3175411 C134.778789,34.8449128 135.034814,35.0347665 135.522077,34.9892307 C136.922924,34.858588 138.328291,34.7580601 139.719369,34.55875 C140.02307,34.5153964 140.475342,34.1412171 140.517041,33.8674203 C140.74551,32.3661933 141.004013,30.8477995 140.99337,29.3369707 C140.978352,27.1732194 139.529829,25.7899781 137.348369,25.7281484 Z M85.6059164,25.7281484 C83.3976291,25.6654457 81.1846761,25.6642818 78.9763887,25.7282938 C76.5932871,25.7973977 75.0887765,26.9261912 74.4390916,29.1922162 C74.0349339,30.6022261 73.7974256,32.0672282 73.5807668,33.5217555 C73.3142443,35.311182 73.0338708,37.1112287 72.9685524,38.9143305 C72.899589,40.8175238 74.1342237,42.2161861 76.0417256,42.4336815 C77.6500458,42.6172796 79.2866512,42.5601052 80.9111552,42.5941479 C81.8673119,42.614079 81.9591659,42.6687801 81.8256131,43.5810967 C81.5453854,45.4937463 81.2241879,47.4005767 80.9277764,49.3108986 C80.8375262,49.8926804 80.4944587,50.1350531 79.9278798,50.131998 C79.0288767,50.1271971 78.1295821,50.1455278 77.2308707,50.1261788 C76.5053697,50.1104667 76.3678803,49.8974813 76.4972049,49.1529053 C76.6747893,48.1294406 76.8401266,47.1037937 77.004589,46.0782923 C77.0941103,45.520515 76.9386874,45.1683035 76.2802544,45.2372618 C74.8814489,45.3839075 73.4778319,45.4943282 72.0857332,45.688401 C71.8164405,45.7259353 71.4071798,46.0510872 71.3743748,46.2869132 C71.1247651,48.0783765 70.8429337,49.8775503 70.7914663,51.6806521 C70.7503506,53.1242683 71.8612011,54.3786127 73.2187453,54.7916356 C73.6956572,54.936681 74.1951681,55.008258 74.684473,55.1134414 L81.5370748,55.1134414 C81.5990398,55.0786712 81.6596926,55.016405 81.7232614,55.0132044 C84.5955222,54.8696138 86.0265495,53.1690767 86.5130842,50.4475481 C86.9722086,47.8799393 87.4441633,45.3105847 87.7723592,42.7243542 C88.1978037,39.3721618 86.5149796,37.588991 83.2755944,37.6473293 C82.0854287,37.6687151 80.8940966,37.6323446 79.7040767,37.657804 C79.090696,37.6710428 78.7836411,37.4950098 78.8956155,36.8199741 C79.20442,34.9605708 79.4675891,33.0930206 79.8161969,31.2413278 C79.8616866,30.999537 80.2852357,30.6902426 80.5628389,30.6573637 C81.2819247,30.5721114 82.0174859,30.6131373 82.7460487,30.6240484 C83.5463451,30.6361234 83.6755239,30.8061917 83.5489695,31.5970309 C83.4038985,32.5033827 83.2675754,33.4111893 83.1214838,34.3175411 C83.0363366,34.8449128 83.2923614,35.0347665 83.7796252,34.9892307 C85.1804719,34.8584426 86.5858385,34.7580601 87.9770624,34.55875 C88.2806181,34.5153964 88.7328898,34.1412171 88.7745886,33.8674203 C89.0030573,32.3661933 89.2615607,30.847654 89.2509173,29.3369707 C89.2357541,27.1732194 87.7873766,25.7899781 85.6059164,25.7281484 Z M112.125357,25.8325019 C110.935145,25.8211226 109.742455,25.8749552 108.555159,25.8148495 C107.60124,25.7665606 107.055477,26.1042906 106.661169,27.0076273 C104.909014,31.0212895 103.091408,35.0063578 101.294355,39.0003252 C101.216077,39.1742233 101.107478,39.3341163 101.013019,39.5005741 C100.759671,38.7864538 100.657195,38.1190176 100.572648,37.4493931 C100.123093,33.8891498 99.6760168,30.3286147 99.2334591,26.767642 C99.1553264,26.1391578 98.8435244,25.8170378 98.1847897,25.8254993 C96.9703799,25.8409634 95.755387,25.8428599 94.5411229,25.8240404 C93.9734946,25.8152871 93.6784561,26.088243 93.5949299,26.6147517 C92.9077701,30.9455738 92.2246919,35.2769795 91.5430714,39.6086769 C90.7935221,44.372056 90.0495121,49.1364564 89.296027,53.8992519 C89.1697901,54.69682 89.2724122,54.8405193 90.1015519,54.8440206 C91.3647947,54.8492726 92.6281833,54.8287024 93.8909888,54.8524821 C94.5118232,54.8641531 94.8067159,54.6301493 94.9043818,53.9946625 C95.4667624,50.3309848 96.0580055,46.6718296 96.6448755,43.0120909 C96.7399175,42.4190574 96.8620728,41.8304006 96.9715461,41.2397013 C97.047638,41.2436403 97.1235842,41.2475793 97.1995303,41.2516641 C97.2550687,41.5241823 97.3211025,41.7950958 97.3641047,42.0696564 C97.656665,43.9371648 97.936835,45.8067156 98.2439724,47.6717439 C98.2792487,47.8863447 98.4062144,48.1562369 98.5770568,48.2660904 C99.4164004,48.8063125 101.077304,48.3171511 101.50922,47.4214006 C102.413577,45.5461602 103.304961,43.6646466 104.205528,41.7878014 C104.299258,41.5926037 104.419956,41.4105358 104.528117,41.2223407 C104.576804,41.2415979 104.625637,41.2607092 104.674324,41.2798204 C104.674324,41.4122865 104.691525,41.5472326 104.6717,41.676635 C104.401297,43.4488787 104.128124,45.2208306 103.851015,46.992199 C103.484258,49.3379273 103.120124,51.6840932 102.740102,54.027779 C102.640395,54.6429874 102.866776,54.8648826 103.480759,54.8533575 C104.864991,54.8275353 106.250244,54.82666 107.63433,54.8537951 C108.223386,54.8654661 108.484606,54.5640622 108.5658,54.0541847 C109.255875,49.7239461 109.93837,45.3925404 110.620428,41.0611348 C111.370706,36.2979015 112.115445,31.5339389 112.869368,26.7714351 C112.991086,26.0033364 112.887297,25.8397963 112.125357,25.8325019 Z M70.0866639,25.818743 C68.917126,25.8152415 67.7474419,25.8158251 66.5777579,25.8185971 C65.6310448,25.8207856 65.478401,25.948008 65.3365768,26.8613249 C64.8346362,30.0942623 64.3385439,33.3280752 63.8325093,36.5604291 C63.7006275,37.4034235 63.5406732,38.241895 63.3935854,39.0825551 C63.3241354,39.0867861 63.2546854,39.0910171 63.1852354,39.095394 C63.1152006,38.8842807 63.029375,38.6772525 62.9777627,38.4619081 C62.0424541,34.5546335 61.1065606,30.6475048 60.1838261,26.7371663 C60.0320595,26.0941971 59.685102,25.7911684 59.0081473,25.8113023 C58.0830735,25.8387309 57.1559526,25.8359589 56.2305863,25.8118858 C55.6293687,25.7961289 55.3290523,26.0762517 55.2394252,26.64102 C54.5594002,30.9248555 53.8745501,35.2079614 53.1994962,39.4925264 C52.4487052,44.2572392 51.7090263,49.0234111 50.9591126,53.7881239 C50.8099778,54.7357266 50.8824983,54.8336237 51.8569913,54.8355204 C52.9047358,54.8375629 53.9526265,54.836104 55.0005173,54.836104 C56.4357196,54.8359581 56.4422991,54.8307058 56.6645391,53.4440982 C56.6759435,53.3721708 56.6744814,53.2982009 56.6861782,53.2264194 C57.3306742,49.2310229 57.974439,45.2354804 58.6256607,41.2411051 C58.6570959,41.0477912 58.7546183,40.864982 58.8214365,40.6773581 C59.0467469,40.8943073 59.122484,41.1090681 59.1743887,41.3295188 C60.163649,45.5236275 61.1543714,49.7172985 62.1325197,53.9140332 C62.2812158,54.5518961 62.600832,54.8797272 63.2957706,54.844566 C64.0491933,54.8064868 64.8091955,54.7933561 65.5607176,54.8480675 C66.2983496,54.9017577 66.6226445,54.5996045 66.729232,53.8921487 C67.1694718,50.9689511 67.6319356,48.0491091 68.0930836,45.1291213 C68.7473756,40.9872439 69.4069312,36.8460959 70.065902,32.704948 C70.3780614,30.7426298 70.7065965,28.7827918 71.0031114,26.8181393 C71.1385023,25.9214547 71.0265051,25.821661 70.0866639,25.818743 Z M46.8348044,25.7424205 C44.7524648,25.658772 42.6625509,25.6656094 40.579046,25.7302006 C37.5576434,25.8237414 36.0359449,27.0573744 35.4458807,30.0359871 C34.8269761,33.1596391 34.3581001,36.3134044 33.8531007,39.4587322 C33.0799432,44.2741198 32.3347523,49.0938717 31.5706257,53.910714 C31.4495832,54.6743154 31.5570794,54.8366661 32.3230996,54.8414668 C33.5845056,54.8496135 34.84664,54.8200819 36.1073178,54.8532504 C36.7983236,54.8714348 37.1050812,54.6066692 37.2020901,53.9140599 C37.4829204,51.9101336 37.8188099,49.9137721 38.1383855,47.8806052 L42.1665823,47.8806052 C42.1292937,48.1909047 42.1071535,48.4306484 42.0710301,48.6682101 C41.7993763,50.4591601 41.5301986,52.250692 41.2484943,54.0401873 C41.1621186,54.5881938 41.3192845,54.8602332 41.9260995,54.8506318 C43.3328732,54.828374 44.7403751,54.8263374 46.1470031,54.8517956 C46.7356107,54.8624153 46.9900768,54.5572075 47.0716458,54.0493522 C47.4235577,51.8555803 47.7606124,49.6596262 48.1087372,47.4652724 C48.7709025,43.2907048 49.4454489,39.1181739 50.0971268,34.9418606 C50.3464948,33.3430838 50.6314036,31.7428523 50.7505526,30.132292 C50.9509793,27.4228091 49.5477014,25.8515272 46.8348044,25.7424205 Z M44.9000224,31.3640004 C44.2745137,35.1695995 43.6570998,38.9765073 43.0351234,42.7957753 L38.9388509,42.7957753 C39.2642626,40.7943131 39.5815795,38.846072 39.8977189,36.8976856 C40.1679387,35.2309637 40.4503743,33.5659868 40.701608,31.8963568 C40.8804299,30.7086248 40.9693257,30.6091624 42.1680947,30.6078537 C42.8783783,30.6071266 43.5885146,30.6111982 44.2987981,30.6151243 C44.8124512,30.6178872 44.9803818,30.8748316 44.9000224,31.3640004 Z M27.18736,46.5476101 C28.9485453,45.9004342 29.6163494,44.4943041 29.888672,42.8007024 C30.51966,38.8762044 31.187464,34.9565218 31.7325476,31.020058 C31.8638878,30.0714017 31.7630816,28.997688 31.4403559,28.0990839 C30.8134587,26.353533 29.2440972,25.859578 27.5559598,25.8353545 C24.3187682,25.7886586 21.0805539,25.8242642 17.8427779,25.8112769 C17.2722737,25.8089421 16.9837344,26.0829886 16.9001675,26.6084634 C16.2145398,30.9158677 15.5311034,35.2237099 14.8517578,39.5321357 C14.0967345,44.3203619 13.3494543,49.1097555 12.5915091,53.8976898 C12.4661588,54.689623 12.5717861,54.8346721 13.4046785,54.8381743 C14.6462009,54.8432816 15.8878695,54.8399254 17.1293919,54.8394876 C18.2299319,54.8390498 18.3304458,54.7217264 18.4889598,53.6198492 C18.7644966,51.7042961 19.0745119,49.7937044 19.3804366,47.8139444 C19.8898728,47.8139444 20.3043467,47.8412323 20.7137072,47.8070859 C21.2295716,47.7640382 21.4722368,47.9044177 21.5926198,48.4742535 C21.9828418,50.3202006 22.4643737,52.1465938 22.8950642,53.9842231 C23.0382381,54.594626 23.345916,54.8762606 24.0157654,54.8527667 C25.3044768,54.8073842 26.5958179,54.8456164 27.8861364,54.8371528 C28.6502176,54.8321914 28.7996736,54.6397167 28.6167616,53.9112608 C28.0627662,51.7051716 27.4909471,49.5033143 26.9625185,47.2912422 C26.9083169,47.0643294 27.0352742,46.6034993 27.18736,46.5476101 Z M25.7869188,31.594313 C25.4563085,33.647061 25.1525631,35.7041852 24.8330743,37.7588296 C24.6175783,39.1444928 24.3833058,40.5270927 24.1773424,41.9140688 C24.1045475,42.4036241 23.9060947,42.7687484 23.3859866,42.7818771 C22.358914,42.8078428 21.3305414,42.7894626 20.2179636,42.7894626 C20.3951846,41.5913941 20.552618,40.4702016 20.7281058,39.3520725 C21.1479764,36.6770232 21.5857569,34.0047456 21.9910397,31.3273624 C22.0528576,30.9190593 22.1617611,30.7224203 22.6069077,30.7383206 C23.4228174,30.7674955 24.2406046,30.751887 25.0575253,30.7454685 C25.6372848,30.7409464 25.8862896,30.9777009 25.7869188,31.594313 Z M122.171707,25.8108124 C120.780014,25.8284674 119.387588,25.8293428 117.995748,25.8105206 C117.383474,25.8023497 117.114137,26.1102174 117.025874,26.6655465 C116.642176,29.0816514 116.252466,31.4968809 115.868622,33.9129858 C114.804472,40.6116618 113.745014,47.3110673 112.673827,54.0087219 C112.582778,54.5782042 112.775873,54.8414238 113.354132,54.8371925 C114.062295,54.8319398 114.770604,54.8360252 115.478766,54.8361711 C116.138251,54.836317 116.800816,54.7954625 117.456049,54.8474061 C118.164065,54.9037269 118.487063,54.6063646 118.588816,53.9346002 C118.933807,51.6592974 119.294339,49.3863291 119.655458,47.1136526 C120.271251,43.2378754 120.895255,39.3634114 121.509582,35.4873424 C121.976119,32.5447983 122.426235,29.5997738 122.899809,26.6582511 C122.997456,26.0511243 122.789993,25.8030792 122.171707,25.8108124 Z M168.872612,25.8138101 C167.481764,25.8259195 166.090477,25.8326308 164.700069,25.8106004 C164.053429,25.8003876 163.787243,26.1185883 163.695975,26.7099075 C163.104711,30.539987 162.513007,34.3699207 161.902259,38.1969364 C161.058726,43.482627 160.199078,48.7659834 159.343239,54.0497774 C159.257831,54.5767562 159.463074,54.8373276 160.003797,54.8349933 C160.735845,54.8319295 161.467893,54.8342638 162.199942,54.8347015 C162.834423,54.8349933 163.472566,54.7923915 164.102359,54.8462273 C164.843197,54.9095465 165.168421,54.5920753 165.272874,53.8904582 C165.61187,51.614616 165.971082,49.3416916 166.331905,47.069205 C167.038756,42.6196482 167.754982,38.1715503 168.461393,33.7219935 C168.837306,31.3539446 169.194028,28.9828318 169.574482,26.6155123 C169.667801,26.0346977 169.445124,25.8087037 168.872612,25.8138101 Z M204.190258,10.7373643 C201.499461,10.7745399 196.217244,10.8477249 196.217244,10.8477249 L196.691445,0.915710436 L196.53733,0.93845317 L188.779608,16.1997025 C188.779608,16.1997025 197.007286,16.1314743 199.67408,16.0970687 C199.358971,17.8373252 199.057473,19.50221 198.748511,21.207915 C200.56833,21.190858 202.356389,21.1739467 204.150302,21.1570354 C203.373579,26.0076524 202.070551,33.9576959 201.671871,36.4968639 C201.535611,37.3647324 201.374764,38.2289563 201.225186,39.0947839 C201.162544,39.1000322 201.099903,39.1052805 201.037261,39.1105289 C200.962765,38.9268376 200.863241,38.7489777 200.817578,38.5584344 C199.877079,34.632397 198.937605,30.7060681 198.012182,26.776386 C197.862018,26.1392979 197.53242,25.8172549 196.849073,25.8362072 C195.898915,25.8624488 194.947293,25.8560342 193.996842,25.838394 C193.420923,25.8278974 193.146793,26.1253024 193.063662,26.6467816 C192.377973,30.9489488 191.693309,35.2514076 191.012743,39.5544495 C190.256364,44.3365468 189.507302,49.1199561 188.748288,53.9017617 C188.62681,54.6668506 188.734969,54.8312981 189.494715,54.8362548 C190.786766,54.8445647 192.079256,54.821822 193.371014,54.845731 C193.998306,54.8573939 194.283558,54.6124722 194.383082,53.9823818 C194.99486,50.1091192 195.634738,46.2402303 196.271397,42.3709039 C196.36448,41.8055429 196.490641,41.2455759 196.601434,40.6831306 C196.677834,40.6873584 196.754233,40.6914405 196.830485,40.6955225 C196.984893,41.3206561 197.144716,41.9446234 197.292538,42.5713607 C198.180494,46.3367411 199.072987,50.1012467 199.945282,53.8702718 C200.109204,54.5783581 200.471733,54.9009842 201.220795,54.8486467 C201.90019,54.801266 202.585439,54.8391706 203.268055,54.8385874 C204.329445,54.8375669 204.433359,54.7311426 204.594646,53.6587352 C204.947077,51.3128805 205.304923,48.9679005 205.677112,46.6251073 C205.989294,44.6591729 206.520721,41.3894675 207.102642,37.8229402 C207.102642,37.8229402 209.799,23.7239029 211.099979,16.5269938 C211.144619,16.2798853 211.162621,16.0281115 211.197015,15.7463057 C208.511779,15.7799825 205.927824,15.8124929 203.265274,15.8460239 C203.580969,14.1021227 203.878369,12.4595433 204.190258,10.7373643 Z M0.970828571,61.3940387 L7.96659067,22.6437849 C7.98457614,22.5303402 7.95810972,22.4097505 7.94875143,22.2200442 C6.66403337,22.2200442 2.76952158,22.2309804 1.50732192,22.2124618 C1.17846568,22.2076499 0.850925453,22.1108282 0.522800332,22.0561473 L0.522800332,21.4728841 C0.859845075,20.3744538 1.23534655,19.2856473 1.51945845,18.1736561 C1.68849261,17.5120899 2.04059835,17.2516629 2.69801838,17.2528294 C8.32703114,17.2631823 23.0218895,17.2555999 26.3114754,17.2599744 C27.1202366,17.2609951 27.2261023,17.4197885 27.0121776,18.2365027 C26.7425418,19.2659622 26.4563827,20.2910471 26.1912799,21.3216731 C26.0297031,21.9499934 25.6708711,22.2477492 24.9926873,22.2287931 C23.8294809,22.1961304 15.0610535,22.2197526 13.8751824,22.2197526 L7.1282924,59.7690675 C9.74481241,59.8689514 12.3122014,59.6967429 14.9467069,59.8074171 C14.5504417,61.4953806 13.5786415,65.1843742 13.1743341,66.9064587 C15.8369144,67.0089672 24.053495,66.9211861 24.053495,66.9211861 L13.9753454,80.900983 L13.8203487,80.9157104 L16.3522054,72.0356748 L7.36780619,72.028384 C7.36780619,72.028384 9.17322547,66.8029295 9.57826406,65.0773455 C6.91992418,64.9741079 2.87787306,65.0197482 0.197014784,64.9157816 C0.245853372,64.6359611 0.334172254,64.1409165 0.334172254,64.1409165 C0.334172254,64.1409165 0.970828571,61.3940387 0.976677504,61.3575847 L0.970828571,61.3940387 Z" id="Fill-13" fill="#EEB23E" sketch:type="MSShapeGroup"></path>
    </g>
</svg>